<svg aria-hidden="true" style="position: absolute; width: 0; height: 0; overflow: hidden;" version="1.1" xmlns="http://www.w3.org/2000/svg" xmlns:xlink="http://www.w3.org/1999/xlink">
<defs>
<symbol id="icon-arrow" viewBox="0 0 32 32">
<path fill="none" stroke="#777" style="stroke: var(--color1, #777)" stroke-linejoin="round" stroke-linecap="round" stroke-miterlimit="4" stroke-width="2.0800" d="M8 24l16-16"></path>
<path fill="none" stroke="#777" style="stroke: var(--color1, #777)" stroke-linejoin="round" stroke-linecap="round" stroke-miterlimit="4" stroke-width="2.0800" d="M13.333 8h10.667v10.667"></path>
</symbol>
<symbol id="icon-star" viewBox="0 0 34 32">
<path stroke-linejoin="round" stroke-linecap="round" stroke-miterlimit="4" stroke-width="2.5263" d="M16.842 2.807l4.337 8.786 9.698 1.418-7.018 6.835 1.656 9.656-8.674-4.562-8.674 4.562 1.656-9.656-7.018-6.835 9.698-1.418 4.337-8.786z"></path>
</symbol>
<symbol id="icon-camera-d" viewBox="0 0 32 32">
<path fill="#bea69e" style="fill: var(--color2, #bea69e)" d="M21 17c0 1.326-0.527 2.598-1.464 3.536s-2.209 1.464-3.536 1.464-2.598-0.527-3.536-1.464c-0.938-0.938-1.464-2.21-1.464-3.536s0.527-2.598 1.464-3.536c0.938-0.938 2.209-1.464 3.536-1.464s2.598 0.527 3.536 1.464c0.938 0.938 1.464 2.209 1.464 3.536z"></path>
<path fill="#bea69e" style="fill: var(--color2, #bea69e)" d="M4 8c-1.061 0-2.078 0.421-2.828 1.172s-1.172 1.768-1.172 2.828v12c0 1.061 0.421 2.078 1.172 2.828s1.768 1.172 2.828 1.172h24c1.061 0 2.078-0.421 2.828-1.172s1.172-1.768 1.172-2.828v-12c0-1.061-0.421-2.078-1.172-2.828s-1.768-1.172-2.828-1.172h-2.344c-1.061-0-2.078-0.422-2.828-1.172l-1.656-1.656c-0.75-0.75-1.767-1.172-2.828-1.172h-4.688c-1.061 0-2.078 0.422-2.828 1.172l-1.656 1.656c-0.75 0.75-1.767 1.172-2.828 1.172h-2.344zM5 12c-0.265 0-0.52-0.105-0.707-0.293s-0.293-0.442-0.293-0.707c0-0.265 0.105-0.52 0.293-0.707s0.442-0.293 0.707-0.293c0.265 0 0.52 0.105 0.707 0.293s0.293 0.442 0.293 0.707c0 0.265-0.105 0.52-0.293 0.707s-0.442 0.293-0.707 0.293zM23 17c0 1.857-0.737 3.637-2.050 4.95s-3.093 2.050-4.95 2.050c-1.857 0-3.637-0.737-4.95-2.050s-2.050-3.093-2.050-4.95c0-1.857 0.738-3.637 2.050-4.95s3.093-2.050 4.95-2.050c1.857 0 3.637 0.738 4.95 2.050s2.050 3.093 2.050 4.95z"></path>
</symbol>
<symbol id="icon-arrow-2" viewBox="0 0 31 32">
<path fill="#fff" style="fill: var(--color3, #fff)" opacity="0.4" d="M15.434 5.287l9.329-0.291-1.907 9.137-3.068-3.657-12.767 10.713-1.286-1.532 12.767-10.713-3.068-3.657z"></path>
</symbol>
<symbol id="icon-camera" viewBox="0 0 32 32">
<path fill="#bea69e" style="fill: var(--color2, #bea69e)" d="M21.161 18.159c0 2.846-2.315 5.161-5.161 5.161s-5.16-2.315-5.16-5.161c0-2.846 2.314-5.161 5.16-5.161s5.161 2.316 5.161 5.161zM32 10.831v14.658c0 1.954-1.584 3.538-3.538 3.538h-24.923c-1.954 0-3.538-1.584-3.538-3.538v-14.658c0-1.954 1.584-3.538 3.538-3.538h4.352v-1.224c0-1.71 1.385-3.096 3.096-3.096h10.026c1.711 0 3.096 1.386 3.096 3.096v1.223h4.352c1.954 0.001 3.538 1.585 3.538 3.539zM23.815 18.159c0-4.309-3.506-7.815-7.815-7.815s-7.814 3.506-7.814 7.815c0 4.309 3.506 7.815 7.814 7.815s7.815-3.506 7.815-7.815z"></path>
</symbol>
</defs>
</svg>
